<svg id="Layer_1_1_" enable-background="new 0 0 64 64" height="256" viewBox="0 0 64 64" width="512" xmlns="http://www.w3.org/2000/svg" xmlns:xlink="http://www.w3.org/1999/xlink"><linearGradient id="SVGID_1_" gradientUnits="userSpaceOnUse" x1="1.922" x2="54.674" y1="8.142" y2="45.417"><stop offset="0" stop-color="#8f58f9"/><stop offset="1" stop-color="#732de2"/></linearGradient><linearGradient id="SVGID_2_" gradientUnits="userSpaceOnUse" x1="11.103" x2="56.049" y1="13.213" y2="46.183"><stop offset="0" stop-color="#732de2"/><stop offset="1" stop-color="#4c1ea5"/></linearGradient><linearGradient id="SVGID_3_" gradientUnits="userSpaceOnUse" x1="21.743" x2="38.858" y1="20.656" y2="32.91"><stop offset="0" stop-color="#fcc05e"/><stop offset="1" stop-color="#f4b34a"/></linearGradient><path d="m31 39h2v19h-2z" fill="#e58842"/><path d="m42 58h-2v-4.586l-3-3v-11.414h2v10.586l3 3z" fill="#e58842"/><path d="m51 58h-2v-4.586l-5-5v-9.414h2v8.586l5 5z" fill="#e58842"/><path d="m59 58h-2v-4.586l-7-7v-7.414h2v6.586l7 7z" fill="#e58842"/><path d="m24 58h-2v-5.414l3-3v-10.586h2v11.414l-3 3z" fill="#e58842"/><path d="m15 58h-2v-5.414l5-5v-8.586h2v9.414l-5 5z" fill="#e58842"/><path d="m7 58h-2v-5.414l7-7v-6.586h2v7.414l-7 7z" fill="#e58842"/><path d="m12 39h2v4h-2z" fill="#6c253d"/><path d="m18 39h2v4h-2z" fill="#6c253d"/><path d="m25 39h2v4h-2z" fill="#6c253d"/><path d="m31 39h2v4h-2z" fill="#6c253d"/><path d="m37 39h2v4h-2z" fill="#6c253d"/><path d="m44 39h2v4h-2z" fill="#6c253d"/><path d="m50 39h2v4h-2z" fill="#6c253d"/><path d="m57 60h2v2h-2z" fill="#e58842"/><path d="m49 60h2v2h-2z" fill="#e58842"/><path d="m40 60h2v2h-2z" fill="#e58842"/><path d="m5 60h2v2h-2z" fill="#e58842"/><path d="m13 60h2v2h-2z" fill="#e58842"/><path d="m22 60h2v2h-2z" fill="#e58842"/><path d="m31 60h2v2h-2z" fill="#e58842"/><path d="m50 19c6.08 0 11 4.92 11 11s-4.92 11-11 11h-35c-6.63 0-12-5.37-12-12 0-6.38 4.98-11.58 11.26-11.96-.17-.82-.26-1.67-.26-2.54 0-6.9 5.6-12.5 12.5-12.5s12.5 5.6 12.5 12.5c0 .21-.02.41-.03.61.33-.07.68-.11 1.03-.11 2.76 0 5 2.24 5 5 0 .08-.02.15-.02.22 1.5-.77 3.21-1.22 5.02-1.22z" fill="url(#SVGID_1_)"/><path d="m15 41h35c6.08 0 11-4.92 11-11 0-5.014-3.349-9.231-7.932-10.559-8.356 12.645-22.535 21.083-38.734 21.525.221.013.441.034.666.034z" fill="url(#SVGID_2_)"/><path d="m24 20h16v16h-16z" fill="url(#SVGID_3_)"/><path d="m28.666 8.371c-.694-.246-1.423-.371-2.166-.371v-2c.972 0 1.925.164 2.834.486z" fill="#f9f1e4"/><path d="m20 14.5h-2c0-3.592 2.277-6.812 5.666-8.014l.668 1.885c-2.592.919-4.334 3.382-4.334 6.129z" fill="#f9f1e4"/><g fill="#6c253d"><path d="m27 23h2v2h-2z"/><path d="m27 27h2v2h-2z"/><path d="m27 31h2v2h-2z"/><path d="m31 23h2v2h-2z"/><path d="m31 27h2v2h-2z"/><path d="m31 31h2v2h-2z"/><path d="m35 23h2v2h-2z"/><path d="m35 27h2v2h-2z"/><path d="m35 31h2v2h-2z"/></g></svg>